<svg xmlns="http://www.w3.org/2000/svg" viewBox="0 0 900 560" font-family="'Helvetica Neue',Helvetica,Arial,sans-serif" xmlns:c2pa="http://c2pa.org/manifest"><metadata><c2pa:manifest>AAAWgmp1bWIAAAAeanVtZGMycGEAEQAQgAAAqgA4m3EDYzJwYQAAABZcanVtYgAAAEdqdW1kYzJtYQARABCAAACqADibcQN1cm46YzJwYTpmYTQ3NzM1MS1hNzdiLTRiOWEtOGIxNi1mMDVkZjIzMDE5YjQAAAADl2p1bWIAAAApanVtZGMyYXMAEQAQgAAAqgA4m3EDYzJwYS5hc3NlcnRpb25zAAAAALxqdW1iAAAARGp1bWRjYm9yABEAEIAAAKoAOJtxE2MycGEuaW5ncmVkaWVudC52MwAAAAAYYzJzaE/xIRYR5HfXNzpsK98Fq1MAAABwY2JvcqNpZGM6Zm9ybWF0bWltYWdlL3N2Zyt4bWxqaW5zdGFuY2VJRHgseG1wOmlpZDo0MjM2MDg3OC1hNzdhLTRiZDAtYjRjNi1iODY3ZWZhODc5NTFscmVsYXRpb25zaGlwaHBhcmVudE9mAAAB4mp1bWIAAABBanVtZGNib3IAEQAQgAAAqgA4m3ETYzJwYS5hY3Rpb25zLnYyAAAAABhjMnNo9UjnRI6aH4AQYCsTXOukRAAAAZljYm9yomdhY3Rpb25zgqJmYWN0aW9ua2MycGEub3BlbmVkanBhcmFtZXRlcnOha2luZ3JlZGllbnRzgaJjdXJseC1zZWxmI2p1bWJmPWMycGEuYXNzZXJ0aW9ucy9jMnBhLmluZ3JlZGllbnQudjNkaGFzaFggPPM8OqtfsqDtIl8bP6T4PeQhzh8IvmP6IB5utKw7A+GkZmFjdGlvbngdY29tLmFudGhyb3BpYy5jbGF1ZGUucHJvdmlkZWRqcGFyYW1ldGVyc6F4H2NvbS5hbnRocm9waWMub3JpZ2luLWNvbmZpZGVuY2VndW5rbm93bmtkZXNjcmlwdGlvbnhmQ2xhdWRlIHByb3ZpZGVkIHRoaXMgZmlsZSBhdCB0aGUgcmVxdWVzdCBvZiBhIHVzZXIgYW5kIG1heSBoYXZlIGNyZWF0ZWQgb3IgbW9kaWZpZWQgdGhlIGZpbGUgY29udGVudHMubXNvZnR3YXJlQWdlbnShZG5hbWVmQ2xhdWRlcmFsbEFjdGlvbnNJbmNsdWRlZPUAAADIanVtYgAAAEBqdW1kY2JvcgARABCAAACqADibcRNjMnBhLmhhc2guZGF0YQAAAAAYYzJzaD4WokHm4M8tTIaQnb0g3MsAAACAY2JvcqVjYWxnZnNoYTI1NmNwYWRNAAAAAAAAAAAAAAAAAGRoYXNoWCB9Sk9eVqheD/RsHoY9AF0YZOBytiN68wrV90BVUTkDVWRuYW1lbmp1bWJmIG1hbmlmZXN0amV4Y2x1c2lvbnOBomVzdGFydBi3Zmxlbmd0aBkeBAAAAj5qdW1iAAAAJ2p1bWRjMmNsABEAEIAAAKoAOJtxA2MycGEuY2xhaW0udjIAAAACD2Nib3KlY2FsZ2ZzaGEyNTZpc2lnbmF0dXJleE1zZWxmI2p1bWJmPS9jMnBhL3VybjpjMnBhOmZhNDc3MzUxLWE3N2ItNGI5YS04YjE2LWYwNWRmMjMwMTliNC9jMnBhLnNpZ25hdHVyZWppbnN0YW5jZUlEeCx4bXA6aWlkOmFkOTU2Mzc5LTk3ODQtNDBkMC05NTZhLTEzZDc0MjM1Y2NlNnJjcmVhdGVkX2Fzc2VydGlvbnODomN1cmx4LXNlbGYjanVtYmY9YzJwYS5hc3NlcnRpb25zL2MycGEuaW5ncmVkaWVudC52M2RoYXNoWCA88zw6q1+yoO0iXxs/pPg95CHOHwi+Y/ogHm60rDsD4aJjdXJseCpzZWxmI2p1bWJmPWMycGEuYXNzZXJ0aW9ucy9jMnBhLmFjdGlvbnMudjJkaGFzaFggRdNbyGRFWtZC5EhQLM7G0weuutF3SqIWnR+Ve/6xcXeiY3VybHgpc2VsZiNqdW1iZj1jMnBhLmFzc2VydGlvbnMvYzJwYS5oYXNoLmRhdGFkaGFzaFggNezayuLVPYOiP4H+KHCWBnKSBR1wUcnklDW031GUO8t0Y2xhaW1fZ2VuZXJhdG9yX2luZm+jZG5hbWVvQW50aHJvcGljIEZpbGVzZ3ZlcnNpb25lMS4wLjBrc3BlY1ZlcnNpb25lMi40LjAAABA4anVtYgAAAChqdW1kYzJjcwARABCAAACqADibcQNjMnBhLnNpZ25hdHVyZQAAABAIY2JvctKEWQISogEmGCFZAgowggIGMIIBjaADAgECAhRA5aAK7sI50L64g/oGQgU9Z1UTADAKBggqhkjOPQQDAzBJMRcwFQYDVQQKEw5BbnRocm9waWMsIFBCQzEuMCwGA1UEAxMlQW50aHJvcGljIENvbnRlbnQgQ3JlZGVudGlhbHMgUm9vdCBDQTAeFw0yNjA4MDcxODQzNTZaFw0yODA4MDYxOTQzNTZaMEQxFzAVBgNVBAoTDkFudGhyb3BpYywgUEJDMSkwJwYDVQQDEyBBbnRocm9waWMgQ2xhdWRlIENvbnRlbnQgU2lnbmluZzBZMBMGByqGSM49AgEGCCqGSM49AwEHA0IABJh6CmvLUBgFFNU0vUKlOVtE6djd17L5SuwX0LemFisBM3dkd/3cyjxFA3Qo5S46fX0/ihY0VZ7mfb9KF703t5OjWDBWMA4GA1UdDwEB/wQEAwIHgDAVBgNVHSUEDjAMBgorBgEEAYPoXgIBMAwGA1UdEwEB/wQCMAAwHwYDVR0jBBgwFoAUzlHiBIFOZFsj+OPEz5o+nMHXXMIwCgYIKoZIzj0EAwMDZwAwZAIwMXMdFJ4BetLLVY7ORuE9noqbbAZOZn/aArXyTwFAZfKrPzxF2vPoJNf1+UCdg1XGAjBwX1zd9WGqYkqmL5SFqw1QySjr1zJfpJM9+1rdDwSPLMOPOjKuiXjoU/pUUeG9RwmhY3BhZFkNngAAAAAAAAAAAAAAAAAAAAAAAAAAAAAAAAAAAAAAAAAAAAAAAAAAAAAAAAAAAAAAAAAAAAAAAAAAAAAAAAAAAAAAAAAAAAAAAAAAAAAAAAAAAAAAAAAAAAAAAAAAAAAAAAAAAAAAAAAAAAAAAAAAAAAAAAAAAAAAAAAAAAAAAAAAAAAAAAAAAAAAAAAAAAAAAAAAAAAAAAAAAAAAAAAAAAAAAAAAAAAAAAAAAAAAAAAAAAAAAAAAAAAAAAAAAAAAAAAAAAAAAAAAAAAAAAAAAAAAAAAAAAAAAAAAAAAAAAAAAAAAAAAAAAAAAAAAAAAAAAAAAAAAAAAAAAAAAAAAAAAAAAAAAAAAAAAAAAAAAAAAAAAAAAAAAAAAAAAAAAAAAAAAAAAAAAAAAAAAAAAAAAAAAAAAAAAAAAAAAAAAAAAAAAAAAAAAAAAAAAAAAAAAAAAAAAAAAAAAAAAAAAAAAAAAAAAAAAAAAAAAAAAAAAAAAAAAAAAAAAAAAAAAAAAAAAAAAAAAAAAAAAAAAAAAAAAAAAAAAAAAAAAAAAAAAAAAAAAAAAAAAAAAAAAAAAAAAAAAAAAAAAAAAAAAAAAAAAAAAAAAAAAAAAAAAAAAAAAAAAAAAAAAAAAAAAAAAAAAAAAAAAAAAAAAAAAAAAAAAAAAAAAAAAAAAAAAAAAAAAAAAAAAAAAAAAAAAAAAAAAAAAAAAAAAAAAAAAAAAAAAAAAAAAAAAAAAAAAAAAAAAAAAAAAAAAAAAAAAAAAAAAAAAAAAAAAAAAAAAAAAAAAAAAAAAAAAAAAAAAAAAAAAAAAAAAAAAAAAAAAAAAAAAAAAAAAAAAAAAAAAAAAAAAAAAAAAAAAAAAAAAAAAAAAAAAAAAAAAAAAAAAAAAAAAAAAAAAAAAAAAAAAAAAAAAAAAAAAAAAAAAAAAAAAAAAAAAAAAAAAAAAAAAAAAAAAAAAAAAAAAAAAAAAAAAAAAAAAAAAAAAAAAAAAAAAAAAAAAAAAAAAAAAAAAAAAAAAAAAAAAAAAAAAAAAAAAAAAAAAAAAAAAAAAAAAAAAAAAAAAAAAAAAAAAAAAAAAAAAAAAAAAAAAAAAAAAAAAAAAAAAAAAAAAAAAAAAAAAAAAAAAAAAAAAAAAAAAAAAAAAAAAAAAAAAAAAAAAAAAAAAAAAAAAAAAAAAAAAAAAAAAAAAAAAAAAAAAAAAAAAAAAAAAAAAAAAAAAAAAAAAAAAAAAAAAAAAAAAAAAAAAAAAAAAAAAAAAAAAAAAAAAAAAAAAAAAAAAAAAAAAAAAAAAAAAAAAAAAAAAAAAAAAAAAAAAAAAAAAAAAAAAAAAAAAAAAAAAAAAAAAAAAAAAAAAAAAAAAAAAAAAAAAAAAAAAAAAAAAAAAAAAAAAAAAAAAAAAAAAAAAAAAAAAAAAAAAAAAAAAAAAAAAAAAAAAAAAAAAAAAAAAAAAAAAAAAAAAAAAAAAAAAAAAAAAAAAAAAAAAAAAAAAAAAAAAAAAAAAAAAAAAAAAAAAAAAAAAAAAAAAAAAAAAAAAAAAAAAAAAAAAAAAAAAAAAAAAAAAAAAAAAAAAAAAAAAAAAAAAAAAAAAAAAAAAAAAAAAAAAAAAAAAAAAAAAAAAAAAAAAAAAAAAAAAAAAAAAAAAAAAAAAAAAAAAAAAAAAAAAAAAAAAAAAAAAAAAAAAAAAAAAAAAAAAAAAAAAAAAAAAAAAAAAAAAAAAAAAAAAAAAAAAAAAAAAAAAAAAAAAAAAAAAAAAAAAAAAAAAAAAAAAAAAAAAAAAAAAAAAAAAAAAAAAAAAAAAAAAAAAAAAAAAAAAAAAAAAAAAAAAAAAAAAAAAAAAAAAAAAAAAAAAAAAAAAAAAAAAAAAAAAAAAAAAAAAAAAAAAAAAAAAAAAAAAAAAAAAAAAAAAAAAAAAAAAAAAAAAAAAAAAAAAAAAAAAAAAAAAAAAAAAAAAAAAAAAAAAAAAAAAAAAAAAAAAAAAAAAAAAAAAAAAAAAAAAAAAAAAAAAAAAAAAAAAAAAAAAAAAAAAAAAAAAAAAAAAAAAAAAAAAAAAAAAAAAAAAAAAAAAAAAAAAAAAAAAAAAAAAAAAAAAAAAAAAAAAAAAAAAAAAAAAAAAAAAAAAAAAAAAAAAAAAAAAAAAAAAAAAAAAAAAAAAAAAAAAAAAAAAAAAAAAAAAAAAAAAAAAAAAAAAAAAAAAAAAAAAAAAAAAAAAAAAAAAAAAAAAAAAAAAAAAAAAAAAAAAAAAAAAAAAAAAAAAAAAAAAAAAAAAAAAAAAAAAAAAAAAAAAAAAAAAAAAAAAAAAAAAAAAAAAAAAAAAAAAAAAAAAAAAAAAAAAAAAAAAAAAAAAAAAAAAAAAAAAAAAAAAAAAAAAAAAAAAAAAAAAAAAAAAAAAAAAAAAAAAAAAAAAAAAAAAAAAAAAAAAAAAAAAAAAAAAAAAAAAAAAAAAAAAAAAAAAAAAAAAAAAAAAAAAAAAAAAAAAAAAAAAAAAAAAAAAAAAAAAAAAAAAAAAAAAAAAAAAAAAAAAAAAAAAAAAAAAAAAAAAAAAAAAAAAAAAAAAAAAAAAAAAAAAAAAAAAAAAAAAAAAAAAAAAAAAAAAAAAAAAAAAAAAAAAAAAAAAAAAAAAAAAAAAAAAAAAAAAAAAAAAAAAAAAAAAAAAAAAAAAAAAAAAAAAAAAAAAAAAAAAAAAAAAAAAAAAAAAAAAAAAAAAAAAAAAAAAAAAAAAAAAAAAAAAAAAAAAAAAAAAAAAAAAAAAAAAAAAAAAAAAAAAAAAAAAAAAAAAAAAAAAAAAAAAAAAAAAAAAAAAAAAAAAAAAAAAAAAAAAAAAAAAAAAAAAAAAAAAAAAAAAAAAAAAAAAAAAAAAAAAAAAAAAAAAAAAAAAAAAAAAAAAAAAAAAAAAAAAAAAAAAAAAAAAAAAAAAAAAAAAAAAAAAAAAAAAAAAAAAAAAAAAAAAAAAAAAAAAAAAAAAAAAAAAAAAAAAAAAAAAAAAAAAAAAAAAAAAAAAAAAAAAAAAAAAAAAAAAAAAAAAAAAAAAAAAAAAAAAAAAAAAAAAAAAAAAAAAAAAAAAAAAAAAAAAAAAAAAAAAAAAAAAAAAAAAAAAAAAAAAAAAAAAAAAAAAAAAAAAAAAAAAAAAAAAAAAAAAAAAAAAAAAAAAAAAAAAAAAAAAAAAAAAAAAAAAAAAAAAAAAAAAAAAAAAAAAAAAAAAAAAAAAAAAAAAAAAAAAAAAAAAAAAAAAAAAAAAAAAAAAAAAAAAAAAAAAAAAAAAAAAAAAAAAAAAAAAAAAAAAAAAAAAAAAAAAAAAAAAAAAAAAAAAAAAAAAAAAAAAAAAAAAAAAAAAAAAAAAAAAAAAAAAAAAAAAAAAAAAAAAAAAAAAAAAAAAAAAAAAAAAAAAAAAAAAAAAAAAAAAAAAAAAAAAAAAAAAAAAAAAAAAAAAAAAAAAAAAAAAAAAAAAAAAAAAAAAAAAAAAAAAAAAAAAAAAAAAAAAAAAAAAAAAAAAAAAAAAAAAAAAAAAAAAAAAAAAAAAAAAAAAAAAAAAAAAAAAAAAAAAAAAAAAAAAAAAAAAAAAAAAAAAAAAAAAAAAAAAAAAAAAAAAAAAAAAAAAAAAAAAAAAAAAAAAAAAAAAAAAAAAAAAAAAAAAAAAAAAAAAAAAAAAAAAAAAAAAAAAAAAAAAAAAAAAAAAAAAAAAAAAAAAAAAAAAAAAAAAAAAAAAAAAAAAAAAAAAAAAAAAAAAAAAAAAAAAAAAAAAAAAAAAAAAAAAAAAAAAAAAAAAAAAAAAAAAAAAAAAAAAAAAAAAAAAAAAAAAAAAAAAAAAAAAAAAAAAAAAAAAAAAAAAAAAAAAAAAAAAAAAAAAAAAAAAAAAAAAAAAAAAAAAAAAAAAAAAAAAAAAAAAAAAAAAAAAAAAAAAAAAAAAAAAAAAAAAAAAAAAAAAAAAAAAAAAAAAAAAAAAAAAAAAAAAAAAAAAAAAAAAAAAAAAAAAAAAAAAAAAAAAAAAAAAAAAAAAAAAAAAAAAAAAAAAAAAAAAAAAAAAAAAAAAAAAAAAAAAAAAAAAAAAAAAAAAAAAAAAAAAAAAAAAAAAAAAAAAAAAAAAAAAAAAAAAAAAAAAAAAAAAAAAAAAAAAAAAAAAAAAAAAAAAAAAAAAAAAAAAAAAAAAAAAAAAAAAAAAAAAAAAAAAAAAAAAAAAAAAAAAAAAAAAAAAAAAAAAAAAAAAAAAAAAAAAAAAAAAAAAAAAAAAAAAAAAAAAAAAAAAAAAAAAAAAAAAAAAAAAAAAAAAAAAAAAAAAAAAAAAAAAAAAAAAAAAAAAAAAAAAAAAAAAAAAAAAAAAAAAAAAAAAAAAAAAAAAAAAAAAAAAAAAAAAAAAAAAAAAAAAAAAAAAAAAAAAAAAAAAAAAAAAAAAAAAAAAAAAAAAAAAAAAAAAAAAAAAAAAAAAAAAAAAAAAAAAAAAAAAAAAAAAAAAAAAAAAAAAAAAAAAAAAAAAAAAAAAAAAAAAAAAAAAAAAAAAAAAAAAAAAAAAAAAAAAAAAAAAAAAAAAAAAAAAAAAAAAAAAAAAAAAAAAAAAAAAAAAAAAAAAAAAAAAAAAAAAAAAAAAAAAAAAAAAAAAAAAAAAAAAAAAAAAAAAAAAAAAAAAAAAAAAAAAAAAAAAAAAAAAAAAAAAAAAAPZYQLy05EbGB3nXJskS/CbCqjUL+s+oaNd3UqP4KhXrzrjvGNEWROb/WkSnCBUTSSDBDTEVDBvQzeqBO1kmjgpw1ss=</c2pa:manifest></metadata>
<rect width="900" height="560" fill="#000000"/>
<defs><marker id="m-h2" viewBox="0 0 10 10" refX="8" refY="5" markerWidth="5" markerHeight="5" orient="auto-start-reverse"><path d="M0,0 L10,5 L0,10 z" fill="#7CC6F2"/></marker><marker id="m-o2" viewBox="0 0 10 10" refX="8" refY="5" markerWidth="5" markerHeight="5" orient="auto-start-reverse"><path d="M0,0 L10,5 L0,10 z" fill="#FF6B5B"/></marker><marker id="m-h2o" viewBox="0 0 10 10" refX="8" refY="5" markerWidth="5" markerHeight="5" orient="auto-start-reverse"><path d="M0,0 L10,5 L0,10 z" fill="#4E8FE8"/></marker><marker id="m-hp" viewBox="0 0 10 10" refX="8" refY="5" markerWidth="5" markerHeight="5" orient="auto-start-reverse"><path d="M0,0 L10,5 L0,10 z" fill="#FFA46B"/></marker><marker id="m-e" viewBox="0 0 10 10" refX="8" refY="5" markerWidth="5" markerHeight="5" orient="auto-start-reverse"><path d="M0,0 L10,5 L0,10 z" fill="#7EDC9B"/></marker><marker id="m-fg" viewBox="0 0 10 10" refX="8" refY="5" markerWidth="5" markerHeight="5" orient="auto-start-reverse"><path d="M0,0 L10,5 L0,10 z" fill="#F2F2F2"/></marker><marker id="m-sub" viewBox="0 0 10 10" refX="8" refY="5" markerWidth="5" markerHeight="5" orient="auto-start-reverse"><path d="M0,0 L10,5 L0,10 z" fill="#9A9A9A"/></marker></defs>
<defs>
<radialGradient id="carbon" cx="35%" cy="32%" r="70%"><stop offset="0" stop-color="#C9C9C9"/><stop offset=".55" stop-color="#6E6E6E"/><stop offset="1" stop-color="#2E2E2E"/></radialGradient>
<radialGradient id="pt" cx="35%" cy="30%" r="70%"><stop offset="0" stop-color="#FFFFFF"/><stop offset="1" stop-color="#8C8C8C"/></radialGradient>
<linearGradient id="pemG" x1="0" x2="1"><stop offset="0" stop-color="#16344D"/><stop offset=".5" stop-color="#21507A"/><stop offset="1" stop-color="#16344D"/></linearGradient>
<pattern id="fiber" width="22" height="22" patternUnits="userSpaceOnUse"><rect width="22" height="22" fill="#3A3A3A"/><path d="M-2,6 L24,2 M-2,17 L24,20 M4,-2 L9,24 M15,-2 L19,24" stroke="#6A6A6A" stroke-width="2.4"/></pattern>
</defs>
<rect x="205" y="120" width="130" height="320" fill="#7CC6F2" opacity=".07"/><rect x="565" y="120" width="130" height="320" fill="#FF6B5B" opacity=".07"/><line x1="150" y1="120" x2="335" y2="120" stroke="#9A9A9A" stroke-width="2"/><line x1="150" y1="440" x2="335" y2="440" stroke="#9A9A9A" stroke-width="2"/><line x1="565" y1="120" x2="750" y2="120" stroke="#9A9A9A" stroke-width="2"/><line x1="565" y1="440" x2="750" y2="440" stroke="#9A9A9A" stroke-width="2"/><polyline points="150,170 205,170 205,390 150,390" fill="none" stroke="#9A9A9A" stroke-width="2"/><polyline points="750,170 695,170 695,390 750,390" fill="none" stroke="#9A9A9A" stroke-width="2"/><rect x="335" y="120" width="50" height="320" fill="url(#fiber)" stroke="#8A8A8A"/><rect x="515" y="120" width="50" height="320" fill="url(#fiber)" stroke="#8A8A8A"/><rect x="385" y="120" width="25" height="320" fill="#9C9C9C" stroke="#BDBDBD"/><circle cx="405.6" cy="382.4" r="1.6" fill="#1A1A1A"/><circle cx="395.5" cy="220.2" r="1.6" fill="#1A1A1A"/><circle cx="405.6" cy="187.7" r="1.6" fill="#1A1A1A"/><circle cx="395.2" cy="372.9" r="1.6" fill="#1A1A1A"/><circle cx="397.8" cy="171.0" r="1.6" fill="#1A1A1A"/><circle cx="392.6" cy="377.8" r="1.6" fill="#1A1A1A"/><circle cx="395.8" cy="150.4" r="1.6" fill="#1A1A1A"/><circle cx="388.3" cy="340.0" r="1.6" fill="#1A1A1A"/><circle cx="396.2" cy="207.8" r="1.6" fill="#1A1A1A"/><circle cx="391.0" cy="343.6" r="1.6" fill="#1A1A1A"/><circle cx="389.6" cy="346.8" r="1.6" fill="#1A1A1A"/><circle cx="390.5" cy="125.6" r="1.6" fill="#1A1A1A"/><circle cx="390.0" cy="155.9" r="1.6" fill="#1A1A1A"/><circle cx="393.4" cy="174.7" r="1.6" fill="#1A1A1A"/><circle cx="404.6" cy="201.3" r="1.6" fill="#1A1A1A"/><circle cx="398.0" cy="185.7" r="1.6" fill="#1A1A1A"/><circle cx="406.2" cy="207.6" r="1.6" fill="#1A1A1A"/><circle cx="398.2" cy="413.1" r="1.6" fill="#1A1A1A"/><circle cx="399.3" cy="292.8" r="1.6" fill="#1A1A1A"/><circle cx="389.7" cy="281.9" r="1.6" fill="#1A1A1A"/><circle cx="393.5" cy="256.2" r="1.6" fill="#1A1A1A"/><circle cx="399.6" cy="309.9" r="1.6" fill="#1A1A1A"/><circle cx="400.1" cy="249.5" r="1.6" fill="#1A1A1A"/><circle cx="395.1" cy="424.6" r="1.6" fill="#1A1A1A"/><circle cx="401.2" cy="342.4" r="1.6" fill="#1A1A1A"/><circle cx="394.9" cy="289.9" r="1.6" fill="#1A1A1A"/><circle cx="402.5" cy="433.7" r="1.6" fill="#1A1A1A"/><circle cx="402.8" cy="278.5" r="1.6" fill="#1A1A1A"/><circle cx="390.8" cy="333.9" r="1.6" fill="#1A1A1A"/><circle cx="398.4" cy="314.6" r="1.6" fill="#1A1A1A"/><circle cx="392.8" cy="412.9" r="1.6" fill="#1A1A1A"/><circle cx="396.4" cy="175.4" r="1.6" fill="#1A1A1A"/><circle cx="399.4" cy="220.4" r="1.6" fill="#1A1A1A"/><circle cx="395.3" cy="425.1" r="1.6" fill="#1A1A1A"/><circle cx="399.7" cy="228.9" r="1.6" fill="#1A1A1A"/><circle cx="397.2" cy="157.6" r="1.6" fill="#1A1A1A"/><circle cx="403.2" cy="281.4" r="1.6" fill="#1A1A1A"/><circle cx="405.2" cy="159.0" r="1.6" fill="#1A1A1A"/><circle cx="392.1" cy="370.4" r="1.6" fill="#1A1A1A"/><circle cx="390.7" cy="375.8" r="1.6" fill="#1A1A1A"/><circle cx="396.4" cy="327.3" r="1.6" fill="#1A1A1A"/><circle cx="397.1" cy="329.6" r="1.6" fill="#1A1A1A"/><circle cx="403.5" cy="236.2" r="1.6" fill="#1A1A1A"/><circle cx="404.0" cy="239.8" r="1.6" fill="#1A1A1A"/><circle cx="403.5" cy="259.6" r="1.6" fill="#1A1A1A"/><circle cx="392.9" cy="338.6" r="1.6" fill="#1A1A1A"/><circle cx="388.9" cy="132.0" r="1.6" fill="#1A1A1A"/><circle cx="390.7" cy="134.8" r="1.6" fill="#1A1A1A"/><circle cx="395.6" cy="193.3" r="1.6" fill="#1A1A1A"/><circle cx="403.7" cy="348.9" r="1.6" fill="#1A1A1A"/><circle cx="403.5" cy="386.1" r="1.6" fill="#1A1A1A"/><circle cx="390.0" cy="127.6" r="1.6" fill="#1A1A1A"/><circle cx="401.7" cy="420.4" r="1.6" fill="#1A1A1A"/><circle cx="397.3" cy="124.4" r="1.6" fill="#1A1A1A"/><circle cx="398.0" cy="382.7" r="1.6" fill="#1A1A1A"/><circle cx="392.6" cy="247.0" r="1.6" fill="#1A1A1A"/><circle cx="391.8" cy="383.1" r="1.6" fill="#1A1A1A"/><circle cx="392.1" cy="259.6" r="1.6" fill="#1A1A1A"/><circle cx="389.3" cy="295.1" r="1.6" fill="#1A1A1A"/><circle cx="403.5" cy="310.2" r="1.6" fill="#1A1A1A"/><circle cx="395.6" cy="390.1" r="1.6" fill="#1A1A1A"/><circle cx="404.4" cy="341.2" r="1.6" fill="#1A1A1A"/><circle cx="393.9" cy="258.5" r="1.6" fill="#1A1A1A"/><circle cx="401.4" cy="216.4" r="1.6" fill="#1A1A1A"/><circle cx="405.2" cy="202.3" r="1.6" fill="#1A1A1A"/><circle cx="396.4" cy="153.1" r="1.6" fill="#1A1A1A"/><circle cx="390.1" cy="426.3" r="1.6" fill="#1A1A1A"/><circle cx="395.4" cy="136.7" r="1.6" fill="#1A1A1A"/><circle cx="394.1" cy="231.3" r="1.6" fill="#1A1A1A"/><circle cx="402.6" cy="345.5" r="1.6" fill="#1A1A1A"/><rect x="490" y="120" width="25" height="320" fill="#9C9C9C" stroke="#BDBDBD"/><circle cx="510.1" cy="271.7" r="1.6" fill="#1A1A1A"/><circle cx="502.0" cy="298.3" r="1.6" fill="#1A1A1A"/><circle cx="509.2" cy="354.0" r="1.6" fill="#1A1A1A"/><circle cx="510.1" cy="213.8" r="1.6" fill="#1A1A1A"/><circle cx="497.7" cy="395.9" r="1.6" fill="#1A1A1A"/><circle cx="499.3" cy="253.6" r="1.6" fill="#1A1A1A"/><circle cx="511.1" cy="268.7" r="1.6" fill="#1A1A1A"/><circle cx="502.0" cy="142.1" r="1.6" fill="#1A1A1A"/><circle cx="496.1" cy="372.6" r="1.6" fill="#1A1A1A"/><circle cx="504.7" cy="152.4" r="1.6" fill="#1A1A1A"/><circle cx="505.4" cy="413.4" r="1.6" fill="#1A1A1A"/><circle cx="501.3" cy="240.2" r="1.6" fill="#1A1A1A"/><circle cx="503.2" cy="219.9" r="1.6" fill="#1A1A1A"/><circle cx="498.7" cy="135.3" r="1.6" fill="#1A1A1A"/><circle cx="499.8" cy="412.6" r="1.6" fill="#1A1A1A"/><circle cx="497.3" cy="291.2" r="1.6" fill="#1A1A1A"/><circle cx="497.0" cy="408.9" r="1.6" fill="#1A1A1A"/><circle cx="510.3" cy="390.1" r="1.6" fill="#1A1A1A"/><circle cx="499.5" cy="420.8" r="1.6" fill="#1A1A1A"/><circle cx="509.0" cy="388.6" r="1.6" fill="#1A1A1A"/><circle cx="506.6" cy="189.9" r="1.6" fill="#1A1A1A"/><circle cx="494.4" cy="256.4" r="1.6" fill="#1A1A1A"/><circle cx="511.8" cy="396.5" r="1.6" fill="#1A1A1A"/><circle cx="511.2" cy="144.4" r="1.6" fill="#1A1A1A"/><circle cx="503.6" cy="134.2" r="1.6" fill="#1A1A1A"/><circle cx="497.0" cy="356.1" r="1.6" fill="#1A1A1A"/><circle cx="507.3" cy="228.6" r="1.6" fill="#1A1A1A"/><circle cx="499.0" cy="125.5" r="1.6" fill="#1A1A1A"/><circle cx="510.9" cy="395.1" r="1.6" fill="#1A1A1A"/><circle cx="494.7" cy="304.8" r="1.6" fill="#1A1A1A"/><circle cx="505.2" cy="151.5" r="1.6" fill="#1A1A1A"/><circle cx="499.4" cy="414.4" r="1.6" fill="#1A1A1A"/><circle cx="511.1" cy="137.7" r="1.6" fill="#1A1A1A"/><circle cx="497.9" cy="337.3" r="1.6" fill="#1A1A1A"/><circle cx="499.9" cy="413.8" r="1.6" fill="#1A1A1A"/><circle cx="496.9" cy="417.4" r="1.6" fill="#1A1A1A"/><circle cx="508.2" cy="219.6" r="1.6" fill="#1A1A1A"/><circle cx="509.7" cy="418.5" r="1.6" fill="#1A1A1A"/><circle cx="507.9" cy="224.2" r="1.6" fill="#1A1A1A"/><circle cx="499.2" cy="202.5" r="1.6" fill="#1A1A1A"/><circle cx="499.7" cy="402.9" r="1.6" fill="#1A1A1A"/><circle cx="506.5" cy="287.9" r="1.6" fill="#1A1A1A"/><circle cx="502.1" cy="218.2" r="1.6" fill="#1A1A1A"/><circle cx="511.4" cy="295.3" r="1.6" fill="#1A1A1A"/><circle cx="500.0" cy="299.3" r="1.6" fill="#1A1A1A"/><circle cx="498.7" cy="375.7" r="1.6" fill="#1A1A1A"/><circle cx="506.6" cy="418.7" r="1.6" fill="#1A1A1A"/><circle cx="496.5" cy="230.6" r="1.6" fill="#1A1A1A"/><circle cx="498.1" cy="179.5" r="1.6" fill="#1A1A1A"/><circle cx="495.7" cy="239.1" r="1.6" fill="#1A1A1A"/><circle cx="509.7" cy="363.2" r="1.6" fill="#1A1A1A"/><circle cx="508.5" cy="430.1" r="1.6" fill="#1A1A1A"/><circle cx="504.2" cy="164.9" r="1.6" fill="#1A1A1A"/><circle cx="494.2" cy="415.0" r="1.6" fill="#1A1A1A"/><circle cx="502.4" cy="133.5" r="1.6" fill="#1A1A1A"/><circle cx="501.0" cy="130.3" r="1.6" fill="#1A1A1A"/><circle cx="511.0" cy="333.2" r="1.6" fill="#1A1A1A"/><circle cx="495.8" cy="227.9" r="1.6" fill="#1A1A1A"/><circle cx="499.6" cy="272.2" r="1.6" fill="#1A1A1A"/><circle cx="500.2" cy="276.1" r="1.6" fill="#1A1A1A"/><circle cx="498.3" cy="171.4" r="1.6" fill="#1A1A1A"/><circle cx="510.7" cy="305.5" r="1.6" fill="#1A1A1A"/><circle cx="505.4" cy="381.6" r="1.6" fill="#1A1A1A"/><circle cx="497.3" cy="335.6" r="1.6" fill="#1A1A1A"/><circle cx="507.5" cy="253.4" r="1.6" fill="#1A1A1A"/><circle cx="507.5" cy="178.9" r="1.6" fill="#1A1A1A"/><circle cx="503.6" cy="333.8" r="1.6" fill="#1A1A1A"/><circle cx="503.3" cy="375.2" r="1.6" fill="#1A1A1A"/><circle cx="510.3" cy="220.1" r="1.6" fill="#1A1A1A"/><circle cx="500.2" cy="313.0" r="1.6" fill="#1A1A1A"/><rect x="410" y="120" width="80" height="320" fill="url(#pemG)" stroke="#6FB3E0" stroke-width="1.2"/>
<polyline points="360,120 360,55 436,55" fill="none" stroke="#F2F2F2" stroke-width="2"/><polyline points="464,55 540,55 540,120" fill="none" stroke="#F2F2F2" stroke-width="2"/><circle cx="450" cy="55" r="14" fill="#000" stroke="#F2F2F2" stroke-width="2"/><path d="M440,45 L460,65 M460,45 L440,65" stroke="#F2F2F2" stroke-width="2"/><text x="450" y="92" font-size="13" text-anchor="middle" fill="#9A9A9A" font-weight="400" opacity="1" >Load</text>
<line x1="385" y1="30" x2="425" y2="30" stroke="#7EDC9B" stroke-width="5" stroke-linecap="round" marker-end="url(#m-e)" opacity="1"/>
<line x1="475" y1="30" x2="515" y2="30" stroke="#7EDC9B" stroke-width="5" stroke-linecap="round" marker-end="url(#m-e)" opacity="1"/>
<text x="372" y="35" font-size="17" text-anchor="end" fill="#7EDC9B" font-weight="600" opacity="1" >e⁻</text>
<text x="528" y="35" font-size="17" text-anchor="start" fill="#7EDC9B" font-weight="600" opacity="1" >e⁻</text>
<text x="270" y="106" font-size="19" text-anchor="middle" fill="#F2F2F2" font-weight="700" opacity="1" >Anode</text>
<text x="630" y="106" font-size="19" text-anchor="middle" fill="#F2F2F2" font-weight="700" opacity="1" >Cathode</text>
<line x1="95" y1="415" x2="190" y2="415" stroke="#7CC6F2" stroke-width="6" stroke-linecap="round" marker-end="url(#m-h2)" opacity="1"/>
<text x="88" y="421" font-size="19" text-anchor="end" fill="#7CC6F2" font-weight="700" opacity="1" >H₂</text>
<line x1="190" y1="145" x2="95" y2="145" stroke="#7CC6F2" stroke-width="6" stroke-linecap="round" marker-end="url(#m-h2)" opacity="0.45"/>
<text x="88" y="151" font-size="14" text-anchor="end" fill="#9A9A9A" font-weight="400" opacity="1" >Exhaust</text>
<line x1="270" y1="230" x2="378" y2="230" stroke="#7CC6F2" stroke-width="5" stroke-linecap="round" marker-end="url(#m-h2)" opacity="1"/>
<line x1="270" y1="330" x2="378" y2="330" stroke="#7CC6F2" stroke-width="5" stroke-linecap="round" marker-end="url(#m-h2)" opacity="1"/>
<text x="250" y="284" font-size="19" text-anchor="middle" fill="#7CC6F2" font-weight="700" opacity="1" >H₂</text>
<line x1="420" y1="230" x2="482" y2="230" stroke="#FFA46B" stroke-width="5" stroke-linecap="round" marker-end="url(#m-hp)" opacity="1"/>
<line x1="420" y1="330" x2="482" y2="330" stroke="#FFA46B" stroke-width="5" stroke-linecap="round" marker-end="url(#m-hp)" opacity="1"/>
<text x="451" y="285" font-size="18" text-anchor="middle" fill="#FFA46B" font-weight="700" opacity="1" >H⁺</text>
<line x1="630" y1="300" x2="522" y2="300" stroke="#FF6B5B" stroke-width="5" stroke-linecap="round" marker-end="url(#m-o2)" opacity="1"/>
<line x1="630" y1="370" x2="522" y2="370" stroke="#FF6B5B" stroke-width="5" stroke-linecap="round" marker-end="url(#m-o2)" opacity="1"/>
<text x="652" y="341" font-size="19" text-anchor="start" fill="#FF6B5B" font-weight="700" opacity="1" >O₂</text>
<line x1="522" y1="190" x2="630" y2="190" stroke="#4E8FE8" stroke-width="5" stroke-linecap="round" marker-end="url(#m-h2o)" opacity="1"/>
<text x="652" y="196" font-size="19" text-anchor="start" fill="#4E8FE8" font-weight="700" opacity="1" >H₂O</text>
<line x1="805" y1="415" x2="710" y2="415" stroke="#FF6B5B" stroke-width="6" stroke-linecap="round" marker-end="url(#m-o2)" opacity="1"/>
<text x="812" y="421" font-size="19" text-anchor="start" fill="#FF6B5B" font-weight="700" opacity="1" >Air</text>
<line x1="710" y1="145" x2="805" y2="145" stroke="#4E8FE8" stroke-width="6" stroke-linecap="round" marker-end="url(#m-h2o)" opacity="0.6"/>
<text x="812" y="151" font-size="14" text-anchor="start" fill="#9A9A9A" font-weight="400" opacity="1" >Exhaust</text>
<text x="270" y="468" font-size="14" text-anchor="middle" fill="#9A9A9A" font-weight="400" opacity="1" >Gas channel</text>
<text x="630" y="468" font-size="14" text-anchor="middle" fill="#9A9A9A" font-weight="400" opacity="1" >Gas channel</text>
<line x1="360" y1="444" x2="360" y2="454" stroke="#9A9A9A"/><text x="360" y="470" font-size="14" text-anchor="middle" fill="#F2F2F2" font-weight="600" opacity="1" >GDL</text>
<line x1="397.5" y1="444" x2="397.5" y2="454" stroke="#9A9A9A"/><text x="397.5" y="488" font-size="14" text-anchor="middle" fill="#F2F2F2" font-weight="600" opacity="1" >CL</text>
<line x1="450" y1="444" x2="450" y2="454" stroke="#9A9A9A"/><text x="450" y="470" font-size="14" text-anchor="middle" fill="#F2F2F2" font-weight="600" opacity="1" >PEM</text>
<line x1="502.5" y1="444" x2="502.5" y2="454" stroke="#9A9A9A"/><text x="502.5" y="488" font-size="14" text-anchor="middle" fill="#F2F2F2" font-weight="600" opacity="1" >CL</text>
<line x1="540" y1="444" x2="540" y2="454" stroke="#9A9A9A"/><text x="540" y="470" font-size="14" text-anchor="middle" fill="#F2F2F2" font-weight="600" opacity="1" >GDL</text>
<line x1="397.5" y1="454" x2="397.5" y2="473" stroke="#9A9A9A"/><line x1="502.5" y1="454" x2="502.5" y2="473" stroke="#9A9A9A"/><text x="450" y="525" font-size="16" text-anchor="middle" fill="#F2F2F2" font-weight="400" opacity="1" xml:space="preserve">Anode:  H₂ → 2H⁺ + 2e⁻          Cathode:  ½O₂ + 2H⁺ + 2e⁻ → H₂O</text>
</svg>